<svg width="63" height="15" viewBox="0 0 63 15" fill="none" xmlns="http://www.w3.org/2000/svg">
<path d="M0.75 12V0.363636H3.90909V4.90909H8.09091V0.363636H11.25V12H8.09091V7.45455H3.90909V12H0.75ZM24.0227 6.18182C24.0227 7.47727 23.7708 8.57008 23.267 9.46023C22.7633 10.3466 22.0833 11.0189 21.2273 11.4773C20.3712 11.9318 19.4167 12.1591 18.3636 12.1591C17.303 12.1591 16.3447 11.9299 15.4886 11.4716C14.6364 11.0095 13.9583 10.3352 13.4545 9.44886C12.9545 8.55871 12.7045 7.4697 12.7045 6.18182C12.7045 4.88636 12.9545 3.79545 13.4545 2.90909C13.9583 2.01894 14.6364 1.34659 15.4886 0.892045C16.3447 0.433712 17.303 0.204545 18.3636 0.204545C19.4167 0.204545 20.3712 0.433712 21.2273 0.892045C22.0833 1.34659 22.7633 2.01894 23.267 2.90909C23.7708 3.79545 24.0227 4.88636 24.0227 6.18182ZM20.7727 6.18182C20.7727 5.48485 20.6799 4.89773 20.4943 4.42045C20.3125 3.93939 20.0417 3.57576 19.6818 3.32955C19.3258 3.07955 18.8864 2.95455 18.3636 2.95455C17.8409 2.95455 17.3996 3.07955 17.0398 3.32955C16.6837 3.57576 16.4129 3.93939 16.2273 4.42045C16.0455 4.89773 15.9545 5.48485 15.9545 6.18182C15.9545 6.87879 16.0455 7.4678 16.2273 7.94886C16.4129 8.42614 16.6837 8.78977 17.0398 9.03977C17.3996 9.28598 17.8409 9.40909 18.3636 9.40909C18.8864 9.40909 19.3258 9.28598 19.6818 9.03977C20.0417 8.78977 20.3125 8.42614 20.4943 7.94886C20.6799 7.4678 20.7727 6.87879 20.7727 6.18182ZM27.8409 10.4091L27.7955 11.0455C27.7576 11.5909 27.6667 12.1136 27.5227 12.6136C27.3826 13.1136 27.233 13.5568 27.0739 13.9432C26.9186 14.3295 26.7955 14.6288 26.7045 14.8409H24.7727C24.8333 14.6288 24.9186 14.322 25.0284 13.9205C25.142 13.5227 25.2443 13.072 25.3352 12.5682C25.4299 12.0682 25.4773 11.5606 25.4773 11.0455V10.4091H27.8409ZM29.8438 12V0.363636H34.8892C35.7756 0.363636 36.5199 0.482954 37.1222 0.721591C37.7282 0.960227 38.1847 1.29735 38.4915 1.73295C38.8021 2.16856 38.9574 2.68182 38.9574 3.27273C38.9574 3.70076 38.8627 4.09091 38.6733 4.44318C38.4877 4.79545 38.2263 5.09091 37.8892 5.32955C37.5521 5.56439 37.1581 5.72727 36.7074 5.81818V5.93182C37.2074 5.95076 37.6619 6.07765 38.071 6.3125C38.4801 6.54356 38.8059 6.86364 39.0483 7.27273C39.2907 7.67803 39.4119 8.1553 39.4119 8.70455C39.4119 9.34091 39.2453 9.9072 38.9119 10.4034C38.5824 10.8996 38.1127 11.2898 37.5028 11.5739C36.893 11.858 36.1657 12 35.321 12H29.8438ZM33.0028 9.47727H34.4801C35.0104 9.47727 35.4081 9.37879 35.6733 9.18182C35.9384 8.98106 36.071 8.68561 36.071 8.29545C36.071 8.02273 36.0085 7.79167 35.8835 7.60227C35.7585 7.41288 35.5805 7.26894 35.3494 7.17045C35.1222 7.07197 34.8475 7.02273 34.5256 7.02273H33.0028V9.47727ZM33.0028 5.06818H34.2983C34.5748 5.06818 34.8191 5.02462 35.0312 4.9375C35.2434 4.85038 35.4081 4.72538 35.5256 4.5625C35.6468 4.39583 35.7074 4.19318 35.7074 3.95455C35.7074 3.5947 35.5786 3.32008 35.321 3.13068C35.0634 2.9375 34.7377 2.84091 34.3438 2.84091H33.0028V5.06818ZM40.5312 12V0.363636H45.554C46.4176 0.363636 47.1733 0.520833 47.821 0.835227C48.4688 1.14962 48.9725 1.60227 49.3324 2.19318C49.6922 2.78409 49.8722 3.49242 49.8722 4.31818C49.8722 5.15151 49.6866 5.85417 49.3153 6.42614C48.9479 6.99811 48.4309 7.42992 47.7642 7.72159C47.1013 8.01326 46.3267 8.15909 45.4403 8.15909H42.4403V5.70455H44.804C45.1752 5.70455 45.4915 5.65909 45.7528 5.56818C46.018 5.47348 46.2206 5.32386 46.3608 5.11932C46.5047 4.91477 46.5767 4.64773 46.5767 4.31818C46.5767 3.98485 46.5047 3.71402 46.3608 3.50568C46.2206 3.29356 46.018 3.13826 45.7528 3.03977C45.4915 2.9375 45.1752 2.88636 44.804 2.88636H43.6903V12H40.5312ZM47.3494 6.65909L50.2585 12H46.8267L43.9858 6.65909H47.3494ZM62.4915 6.18182C62.4915 7.47727 62.2396 8.57008 61.7358 9.46023C61.232 10.3466 60.5521 11.0189 59.696 11.4773C58.84 11.9318 57.8854 12.1591 56.8324 12.1591C55.7718 12.1591 54.8134 11.9299 53.9574 11.4716C53.1051 11.0095 52.4271 10.3352 51.9233 9.44886C51.4233 8.55871 51.1733 7.4697 51.1733 6.18182C51.1733 4.88636 51.4233 3.79545 51.9233 2.90909C52.4271 2.01894 53.1051 1.34659 53.9574 0.892045C54.8134 0.433712 55.7718 0.204545 56.8324 0.204545C57.8854 0.204545 58.84 0.433712 59.696 0.892045C60.5521 1.34659 61.232 2.01894 61.7358 2.90909C62.2396 3.79545 62.4915 4.88636 62.4915 6.18182ZM59.2415 6.18182C59.2415 5.48485 59.1487 4.89773 58.9631 4.42045C58.7812 3.93939 58.5104 3.57576 58.1506 3.32955C57.7945 3.07955 57.3551 2.95455 56.8324 2.95455C56.3097 2.95455 55.8684 3.07955 55.5085 3.32955C55.1525 3.57576 54.8816 3.93939 54.696 4.42045C54.5142 4.89773 54.4233 5.48485 54.4233 6.18182C54.4233 6.87879 54.5142 7.4678 54.696 7.94886C54.8816 8.42614 55.1525 8.78977 55.5085 9.03977C55.8684 9.28598 56.3097 9.40909 56.8324 9.40909C57.3551 9.40909 57.7945 9.28598 58.1506 9.03977C58.5104 8.78977 58.7812 8.42614 58.9631 7.94886C59.1487 7.4678 59.2415 6.87879 59.2415 6.18182Z" fill="#656565"/>
</svg>
