<svg width="59" height="13" viewBox="0 0 59 13" fill="none" xmlns="http://www.w3.org/2000/svg">
<path d="M0.75 12V0.363636H3.90909V4.90909H8.09091V0.363636H11.25V12H8.09091V7.45455H3.90909V12H0.75ZM24.0227 6.18182C24.0227 7.47727 23.7708 8.57008 23.267 9.46023C22.7633 10.3466 22.0833 11.0189 21.2273 11.4773C20.3712 11.9318 19.4167 12.1591 18.3636 12.1591C17.303 12.1591 16.3447 11.9299 15.4886 11.4716C14.6364 11.0095 13.9583 10.3352 13.4545 9.44886C12.9545 8.55871 12.7045 7.4697 12.7045 6.18182C12.7045 4.88636 12.9545 3.79545 13.4545 2.90909C13.9583 2.01894 14.6364 1.34659 15.4886 0.892045C16.3447 0.433712 17.303 0.204545 18.3636 0.204545C19.4167 0.204545 20.3712 0.433712 21.2273 0.892045C22.0833 1.34659 22.7633 2.01894 23.267 2.90909C23.7708 3.79545 24.0227 4.88636 24.0227 6.18182ZM20.7727 6.18182C20.7727 5.48485 20.6799 4.89773 20.4943 4.42045C20.3125 3.93939 20.0417 3.57576 19.6818 3.32955C19.3258 3.07955 18.8864 2.95455 18.3636 2.95455C17.8409 2.95455 17.3996 3.07955 17.0398 3.32955C16.6837 3.57576 16.4129 3.93939 16.2273 4.42045C16.0455 4.89773 15.9545 5.48485 15.9545 6.18182C15.9545 6.87879 16.0455 7.4678 16.2273 7.94886C16.4129 8.42614 16.6837 8.78977 17.0398 9.03977C17.3996 9.28598 17.8409 9.40909 18.3636 9.40909C18.8864 9.40909 19.3258 9.28598 19.6818 9.03977C20.0417 8.78977 20.3125 8.42614 20.4943 7.94886C20.6799 7.4678 20.7727 6.87879 20.7727 6.18182ZM25.4844 12V0.363636H30.5298C31.4162 0.363636 32.1605 0.482954 32.7628 0.721591C33.3688 0.960227 33.8253 1.29735 34.1321 1.73295C34.4427 2.16856 34.598 2.68182 34.598 3.27273C34.598 3.70076 34.5033 4.09091 34.3139 4.44318C34.1283 4.79545 33.867 5.09091 33.5298 5.32955C33.1927 5.56439 32.7988 5.72727 32.348 5.81818V5.93182C32.848 5.95076 33.3026 6.07765 33.7116 6.3125C34.1207 6.54356 34.4465 6.86364 34.6889 7.27273C34.9313 7.67803 35.0526 8.1553 35.0526 8.70455C35.0526 9.34091 34.8859 9.9072 34.5526 10.4034C34.223 10.8996 33.7533 11.2898 33.1435 11.5739C32.5336 11.858 31.8063 12 30.9616 12H25.4844ZM28.6435 9.47727H30.1207C30.651 9.47727 31.0488 9.37879 31.3139 9.18182C31.5791 8.98106 31.7116 8.68561 31.7116 8.29545C31.7116 8.02273 31.6491 7.79167 31.5241 7.60227C31.3991 7.41288 31.2211 7.26894 30.9901 7.17045C30.7628 7.07197 30.4882 7.02273 30.1662 7.02273H28.6435V9.47727ZM28.6435 5.06818H29.9389C30.2154 5.06818 30.4598 5.02462 30.6719 4.9375C30.884 4.85038 31.0488 4.72538 31.1662 4.5625C31.2874 4.39583 31.348 4.19318 31.348 3.95455C31.348 3.5947 31.2192 3.32008 30.9616 3.13068C30.7041 2.9375 30.3783 2.84091 29.9844 2.84091H28.6435V5.06818ZM36.1719 12V0.363636H41.1946C42.0582 0.363636 42.8139 0.520833 43.4616 0.835227C44.1094 1.14962 44.6132 1.60227 44.973 2.19318C45.3329 2.78409 45.5128 3.49242 45.5128 4.31818C45.5128 5.15151 45.3272 5.85417 44.956 6.42614C44.5885 6.99811 44.0715 7.42992 43.4048 7.72159C42.742 8.01326 41.9673 8.15909 41.081 8.15909H38.081V5.70455H40.4446C40.8158 5.70455 41.1321 5.65909 41.3935 5.56818C41.6586 5.47348 41.8613 5.32386 42.0014 5.11932C42.1454 4.91477 42.2173 4.64773 42.2173 4.31818C42.2173 3.98485 42.1454 3.71402 42.0014 3.50568C41.8613 3.29356 41.6586 3.13826 41.3935 3.03977C41.1321 2.9375 40.8158 2.88636 40.4446 2.88636H39.331V12H36.1719ZM42.9901 6.65909L45.8991 12H42.4673L39.6264 6.65909H42.9901ZM58.1321 6.18182C58.1321 7.47727 57.8802 8.57008 57.3764 9.46023C56.8726 10.3466 56.1927 11.0189 55.3366 11.4773C54.4806 11.9318 53.526 12.1591 52.473 12.1591C51.4124 12.1591 50.4541 11.9299 49.598 11.4716C48.7457 11.0095 48.0677 10.3352 47.5639 9.44886C47.0639 8.55871 46.8139 7.4697 46.8139 6.18182C46.8139 4.88636 47.0639 3.79545 47.5639 2.90909C48.0677 2.01894 48.7457 1.34659 49.598 0.892045C50.4541 0.433712 51.4124 0.204545 52.473 0.204545C53.526 0.204545 54.4806 0.433712 55.3366 0.892045C56.1927 1.34659 56.8726 2.01894 57.3764 2.90909C57.8802 3.79545 58.1321 4.88636 58.1321 6.18182ZM54.8821 6.18182C54.8821 5.48485 54.7893 4.89773 54.6037 4.42045C54.4219 3.93939 54.151 3.57576 53.7912 3.32955C53.4351 3.07955 52.9957 2.95455 52.473 2.95455C51.9503 2.95455 51.509 3.07955 51.1491 3.32955C50.7931 3.57576 50.5223 3.93939 50.3366 4.42045C50.1548 4.89773 50.0639 5.48485 50.0639 6.18182C50.0639 6.87879 50.1548 7.4678 50.3366 7.94886C50.5223 8.42614 50.7931 8.78977 51.1491 9.03977C51.509 9.28598 51.9503 9.40909 52.473 9.40909C52.9957 9.40909 53.4351 9.28598 53.7912 9.03977C54.151 8.78977 54.4219 8.42614 54.6037 7.94886C54.7893 7.4678 54.8821 6.87879 54.8821 6.18182Z" fill="#656565"/>
</svg>
