<svg width="13" height="15" viewBox="0 0 13 15" fill="none" xmlns="http://www.w3.org/2000/svg">
<g clip-path="url(#clip0_193_1522)">
<path d="M6.36011 2.75977V9.01977" stroke="#656565" stroke-width="2" stroke-linecap="round" stroke-linejoin="round"/>
<path d="M4.6001 2.76L6.3601 1L8.1201 2.76" stroke="#656565" stroke-width="2" stroke-linecap="round" stroke-linejoin="round"/>
<path d="M9.44 5.25977H9.70999C10.2404 5.25977 10.7491 5.47051 11.1242 5.84558C11.4993 6.22065 11.71 6.72933 11.71 7.25977V11.9398C11.71 12.4702 11.4993 12.9789 11.1242 13.354C10.7491 13.7291 10.2404 13.9398 9.70999 13.9398H3C2.46957 13.9398 1.96086 13.7291 1.58578 13.354C1.21071 12.9789 1 12.4702 1 11.9398V7.25977C1 6.72933 1.21071 6.22065 1.58578 5.84558C1.96086 5.47051 2.46957 5.25977 3 5.25977H3.24002" stroke="#656565" stroke-width="2" stroke-linecap="round" stroke-linejoin="round"/>
</g>
<defs>
<clipPath id="clip0_193_1522">
<rect width="12.72" height="14.94" fill="white"/>
</clipPath>
</defs>
</svg>
