<svg width="12" height="13" viewBox="0 0 12 13" fill="none" xmlns="http://www.w3.org/2000/svg">
<g clip-path="url(#clip0_193_1528)">
<path d="M10.1901 5.72876L2.19005 1.10877C2.0694 1.03792 1.93211 1.00039 1.79219 1C1.65228 0.999616 1.51476 1.03639 1.39373 1.10657C1.27269 1.17675 1.17246 1.27786 1.10329 1.39948C1.03412 1.5211 0.998494 1.65886 1.00005 1.79877V11.0388C0.998494 11.1787 1.03412 11.3166 1.10329 11.4382C1.17246 11.5598 1.27269 11.6608 1.39373 11.731C1.51476 11.8012 1.65228 11.838 1.79219 11.8376C1.93211 11.8372 2.0694 11.7997 2.19005 11.7288L10.1901 7.10877C10.3104 7.03818 10.4101 6.93738 10.4794 6.81635C10.5487 6.69531 10.5852 6.55824 10.5852 6.41877C10.5852 6.27929 10.5487 6.14228 10.4794 6.02124C10.4101 5.90021 10.3104 5.79935 10.1901 5.72876V5.72876Z" fill="#656565" stroke="#656565" stroke-width="2" stroke-linecap="round" stroke-linejoin="round"/>
</g>
<defs>
<clipPath id="clip0_193_1528">
<rect width="11.6" height="12.84" fill="white"/>
</clipPath>
</defs>
</svg>
