<svg width="24" height="24" viewBox="0 0 24 24" fill="none" xmlns="http://www.w3.org/2000/svg">
<path d="M19.0831 19.9326L22.2452 19.9326C22.9654 19.9326 23.5493 19.3487 23.5493 18.6285L23.5493 9.46297C23.5493 8.74271 22.9654 8.15882 22.2452 8.15882L19.0831 8.15882C18.3628 8.15882 17.7789 8.74271 17.7789 9.46297L17.7789 18.6285C17.7789 19.3487 18.3628 19.9326 19.0831 19.9326Z" fill="white"/>
<path d="M16.119 9.99672L16.119 18.6528C16.119 18.8209 16.0859 18.9873 16.0216 19.1427C15.9573 19.298 15.863 19.4391 15.7442 19.5579C15.6253 19.6768 15.4842 19.7711 15.3289 19.8354C15.1736 19.8997 15.0071 19.9328 14.839 19.9328L8.99803 19.9322C8.05211 19.932 7.13314 19.617 6.38602 19.0368C5.6389 18.4566 5.10611 17.6443 4.87164 16.7279L3.36051 10.8101C3.28032 10.4963 3.27294 10.1682 3.33893 9.85113C3.40492 9.53401 3.54254 9.23618 3.74126 8.9804C3.93998 8.72461 4.19455 8.51764 4.4855 8.3753C4.77646 8.23297 5.09611 8.15903 5.42002 8.15915L9.62142 8.15915C9.78064 8.15888 9.93325 8.09552 10.0458 7.98293C10.1584 7.87035 10.2218 7.71773 10.2221 7.55851L10.2221 4.56331C10.2222 3.66283 10.58 2.79928 11.2167 2.16255C11.8534 1.52582 12.717 1.16804 13.6175 1.16789C13.743 1.16793 13.8653 1.20726 13.9673 1.28036C14.0693 1.35346 14.1458 1.45666 14.1861 1.57548L15.634 6.589C15.9548 7.69651 16.1181 8.84368 16.119 9.99672Z" fill="white"/>
</svg>
