<svg width="24" height="24" viewBox="0 0 24 24" fill="none" xmlns="http://www.w3.org/2000/svg">
<path d="M4.91694 4.06738L1.75483 4.06738C1.03457 4.06738 0.450684 4.65127 0.450684 5.37153L0.450684 14.537C0.450684 15.2573 1.03457 15.8412 1.75483 15.8412L4.91694 15.8412C5.6372 15.8412 6.22108 15.2573 6.22108 14.537L6.22108 5.37152C6.22108 4.65127 5.6372 4.06738 4.91694 4.06738Z" fill="white"/>
<path d="M7.88099 14.0033L7.88099 5.3472C7.88097 5.1791 7.91406 5.01265 7.97838 4.85735C8.04269 4.70205 8.13697 4.56093 8.25583 4.44207C8.37469 4.32321 8.51581 4.22893 8.67111 4.16462C8.82641 4.1003 8.99286 4.06721 9.16096 4.06723L15.002 4.06784C15.9479 4.06803 16.8669 4.38304 17.614 4.96319C18.3611 5.54335 18.8939 6.35566 19.1284 7.27207L20.6395 13.1899C20.7197 13.5038 20.7271 13.8318 20.6611 14.1489C20.5951 14.466 20.4575 14.7638 20.2587 15.0196C20.06 15.2754 19.8055 15.4824 19.5145 15.6247C19.2235 15.767 18.9039 15.841 18.58 15.8409L14.3786 15.8409C14.2194 15.8411 14.0667 15.9045 13.9542 16.0171C13.8416 16.1297 13.7782 16.2823 13.7779 16.4415L13.7779 19.4367C13.7778 20.3372 13.42 21.2007 12.7833 21.8375C12.1466 22.4742 11.283 22.832 10.3825 22.8321C10.257 22.8321 10.1347 22.7927 10.0327 22.7196C9.93074 22.6465 9.8542 22.5433 9.81385 22.4245L8.36605 17.411C8.04521 16.3035 7.88192 15.1563 7.88099 14.0033Z" fill="white"/>
</svg>
